<svg width="600" height="586" viewBox="0 0 600 586" fill="none" xmlns="http://www.w3.org/2000/svg">
<mask id="mask0_193_6" style="mask-type:alpha" maskUnits="userSpaceOnUse" x="0" y="0" width="600" height="586">
<g clip-path="url(#clip0_193_6)">
<path d="M114.68 68.952C114.68 76.6838 114.68 84.3952 114.68 92.127C114.618 92.809 114.757 93.4943 115.08 94.0979C115.403 94.7015 115.896 95.1969 116.498 95.5224C118.848 96.9952 121.177 98.5292 123.383 100.227C124.019 100.742 124.762 101.107 125.558 101.295C126.354 101.483 127.182 101.488 127.98 101.311C137.746 99.6133 147.553 97.9769 157.34 96.361C158.214 96.2268 159.108 96.2898 159.955 96.5452C165.083 98.2838 170.171 100.043 175.278 101.945C175.74 102.128 176.16 102.404 176.512 102.756C176.863 103.108 177.139 103.528 177.321 103.991C179.222 109.8 181.224 115.609 182.654 121.541C183.27 125.1 183.578 128.707 183.573 132.32C183.778 135.306 183.696 138.313 184.064 141.279C184.45 145.864 183.75 150.475 182.021 154.738C181.04 156.808 179.834 158.763 178.425 160.568C174.859 166.391 172.672 172.954 172.03 179.754C172.022 180.513 172.308 181.246 172.827 181.799C174.498 183.76 176.3 185.605 178.22 187.322C179.341 188.234 180.666 188.859 182.082 189.143C187.088 190.145 190.5 193.049 193.912 196.813C200.94 204.545 205.864 213.483 210.869 222.483C211.515 223.499 212.456 224.292 213.566 224.754C227.602 230.604 242.599 232.547 257.411 235.165C261.028 235.799 264.644 236.699 268.281 237.047C271.809 237.316 275.351 237.35 278.884 237.149C289.57 236.72 300.255 236.106 310.961 235.697C318.378 235.303 325.677 233.671 332.557 230.87C334.331 230.347 335.95 229.397 337.271 228.103C338.593 226.808 339.577 225.209 340.137 223.445C340.872 221.133 342.18 219.047 343.079 216.756C344.498 212.443 347.299 208.719 351.047 206.161C352.593 205.017 354.25 204.03 355.991 203.215C360.609 201.292 365.288 199.554 369.987 197.836C370.643 197.586 371.236 197.195 371.724 196.689C372.211 196.184 372.581 195.576 372.806 194.911C376.463 187.077 373.174 180.49 369.251 174.068C366.718 169.977 363.816 165.886 361.079 162.02C360.746 161.632 360.55 161.146 360.521 160.636C360.491 160.126 360.63 159.621 360.915 159.197C362.407 156.395 363.49 153.163 366.84 152.038C370.191 150.913 373.235 150.32 376.463 149.584C376.974 149.481 377.628 149.931 378.2 150.197C423.904 171.654 469.629 193.029 515.252 214.67C521.503 218.004 527.548 221.713 533.354 225.777C543.222 232.036 552.988 238.438 562.918 244.574C565.839 246.374 569.231 247.417 572.336 248.931C573.205 249.327 573.922 249.995 574.379 250.833C576.299 254.535 577.984 258.354 579.426 262.267C580.129 265.298 580.675 268.364 581.06 271.451C582.736 279.081 580.59 286.526 580.141 293.951C579.96 297.546 580.138 301.151 580.672 304.71C581.673 312.135 582.123 319.683 585.065 326.719C585.615 328.197 586.299 329.621 587.108 330.974C589.194 334.265 590.759 337.86 591.746 341.631C593.442 347.767 595.219 353.903 597.119 360.04C598.784 365.017 598.941 370.376 597.569 375.442C596.405 380.091 596.483 384.966 597.793 389.576C599.435 396.128 600.218 402.867 600.123 409.621C600.098 410.645 599.869 411.653 599.448 412.587C596.772 417.864 594.055 423.121 591.276 428.317C590.74 429.262 589.946 430.035 588.988 430.546C574.808 437.746 560.65 444.864 546.348 451.962C543.332 453.184 540.195 454.082 536.99 454.642C518.255 459.305 499.52 463.887 480.805 468.591C479.548 468.934 478.424 469.647 477.577 470.637C470.671 478.819 464.092 487.185 457.983 496.021C452.078 505.13 444.956 513.388 436.817 520.566C435.836 521.441 434.76 522.203 433.609 522.837C420.86 529.369 408.781 537.138 397.548 546.032C393.249 549.668 389.226 553.62 385.514 557.855C378.343 565.73 369.496 571.6 361.324 578.309C360.702 578.725 360.01 579.023 359.281 579.189C354.418 580.621 349.596 582.257 344.652 583.28C340.249 584.187 335.803 584.87 331.331 585.325C322.56 586.392 313.688 586.324 304.934 585.121C303.913 584.899 302.998 584.337 302.339 583.525C300.553 581.301 298.921 578.957 297.456 576.509C294.581 572.018 290.716 568.246 286.158 565.484C276.167 558.673 264.705 555.052 253.979 549.878C247.401 546.586 240.124 544.937 232.771 545.071C228.003 544.926 223.245 545.618 218.715 547.116C208.254 551.207 197.14 552.25 186.229 554.193C177.24 555.809 168.189 554.664 159.179 555.073C155.582 555.037 152.003 554.577 148.514 553.702C137.358 551.555 127.96 545.521 118.071 540.53C114.488 538.659 111.581 535.712 109.756 532.103C108.412 529.894 107.536 527.432 107.185 524.87C106.833 522.308 107.013 519.701 107.713 517.212C109.388 511.075 107.406 505.041 106.078 499.15C105.147 496.812 103.758 494.684 101.992 492.891C98.0488 487.676 96.5778 481.355 93.9626 475.546C93.8193 474.954 93.8917 474.33 94.1669 473.787C95.5358 470.289 96.9455 466.812 98.437 463.355C98.9327 462.444 99.5215 461.587 100.194 460.798C103.872 455.746 107.631 450.735 111.227 445.642C111.602 444.943 112.126 444.336 112.762 443.862C113.397 443.389 114.129 443.06 114.905 442.901C115.109 442.901 115.293 442.737 115.497 442.717C122.811 441.776 127.367 436.928 131.433 431.405C133.824 428.153 135.989 424.717 138.543 421.608C141.833 417.201 144.386 412.29 146.103 407.064C146.937 404.343 147.512 401.549 147.819 398.719C147.84 398.175 147.674 397.641 147.349 397.205C144.279 392.626 140.124 388.881 135.254 386.303C134.623 385.983 133.899 385.896 133.211 386.058C129.451 387.203 125.733 388.553 121.953 389.658C119.83 390.292 117.645 390.696 115.436 390.865C111.554 391.13 107.651 390.865 103.77 391.253C95.1476 391.928 87.016 389.208 78.6802 387.858C78.0169 387.658 77.4316 387.258 77.0048 386.712C73.1025 382.621 69.2206 378.53 65.3999 374.44C64.7662 373.723 64.3235 372.857 64.1128 371.924C62.8461 366.36 61.7428 360.776 60.4352 355.233C60.1397 354.124 59.5123 353.132 58.6373 352.39C50.3939 345.548 41.2161 339.92 31.3822 335.678C29.6251 334.922 29.3391 334.042 30.1155 332.365C30.8919 330.687 31.3005 328.949 32.1586 327.333C35.305 320.788 35.8157 313.772 36.4695 306.674C36.9379 302.091 35.604 297.505 32.7511 293.89C28.1322 287.099 22.8708 280.77 17.0396 274.99C12.2382 270.429 9.1123 264.64 5.20996 259.445C1.95694 255.212 0.33909 249.946 0.653804 244.615C0.93984 234.183 0.653814 223.731 0.408641 213.299C0.285964 212.49 0.416458 211.662 0.782247 210.929C1.14804 210.197 1.7312 209.596 2.45175 209.208C3.24856 208.758 3.8615 208.002 4.65831 207.654C8.74453 205.813 9.41877 202.315 9.23489 198.49C9.07346 195.999 9.87024 193.54 11.4619 191.618C14.5674 187.527 17.489 183.436 20.3698 179.345C20.6612 178.946 20.8692 178.492 20.9815 178.01C21.0938 177.529 21.1081 177.03 21.0236 176.543C18.7558 170.631 19.1235 164.72 19.8386 158.543C20.6354 151.752 20.1247 144.797 20.3494 137.925C20.4117 135.368 20.7752 132.828 21.4323 130.356C24.5582 119.25 27.8885 108.204 31.0757 97.1179C31.382 96.0068 31.382 94.8335 31.0757 93.7224C29.0326 87.3816 26.826 81.0816 24.7625 74.7407C24.4777 73.8334 24.4354 72.8672 24.6399 71.9384C26.002 65.6248 27.4458 59.3248 28.9713 53.0385C29.0548 52.0231 29.3768 51.0419 29.9111 50.1749C33.9974 45.3681 38.1857 40.5817 42.4763 35.8567C43.6138 34.8491 44.9307 34.065 46.3582 33.5454C50.4444 31.6227 54.3467 29.9454 57.2071 25.9363C59.7833 22.4537 61.3779 18.3423 61.8245 14.0318C62.4011 10.4716 63.2829 6.96779 64.4601 3.55911C64.6295 3.24576 64.8654 2.97348 65.1514 2.76142C65.4373 2.54936 65.7663 2.40268 66.115 2.33183C70.7529 1.47275 75.4112 0.695511 80.0695 -0.0613043C80.6791 -0.135097 81.2973 -0.0864053 81.8878 0.081892C86.6074 1.28871 91.3066 2.47502 95.9853 3.80456C96.9577 4.09665 97.8286 4.65661 98.4983 5.42048C101.461 8.83637 104.28 12.375 107.161 15.8523C107.461 16.1427 107.709 16.4815 107.897 16.8545C109.94 23.6045 113.474 29.9659 113.863 37.1659C114.435 47.7204 114.802 58.2748 115.252 68.8293L114.68 68.952Z" fill="#DEDEFF"/>
</g>
</mask>
<g mask="url(#mask0_193_6)">
<rect x="19.6755" y="-22.8663" width="636.143" height="586.095" fill="url(#paint0_linear_193_6)"/>
</g>
<defs>
<linearGradient id="paint0_linear_193_6" x1="337.747" y1="-22.8663" x2="337.747" y2="563.228" gradientUnits="userSpaceOnUse">
<stop stop-color="#8282FF"/>
<stop offset="1" stop-color="#DEDEFF" stop-opacity="0"/>
</linearGradient>
<clipPath id="clip0_193_6">
<rect width="600" height="586" fill="white"/>
</clipPath>
</defs>
</svg>
